<svg id="visual" viewBox="0 0 900 600" width="900" height="600" xmlns="http://www.w3.org/2000/svg" xmlns:xlink="http://www.w3.org/1999/xlink" version="1.1"><rect x="0" y="0" width="900" height="600" fill="#FFFFFF"></rect><defs><linearGradient id="grad1_0" x1="33.3%" y1="0%" x2="100%" y2="100%"><stop offset="20%" stop-color="#ffffff" stop-opacity="1"></stop><stop offset="80%" stop-color="#ffffff" stop-opacity="1"></stop></linearGradient></defs><defs><linearGradient id="grad2_0" x1="0%" y1="0%" x2="66.7%" y2="100%"><stop offset="20%" stop-color="#ffffff" stop-opacity="1"></stop><stop offset="80%" stop-color="#ffffff" stop-opacity="1"></stop></linearGradient></defs><g transform="translate(900, 0)"><path d="M0 486.7C-66.3 482.3 -132.5 477.8 -186.3 449.7C-240 421.6 -281.2 369.8 -322.4 322.4C-363.7 275.1 -405 232.1 -432.4 179.1C-459.8 126.1 -473.3 63 -486.7 0L0 0Z" fill="#FBAE3C"></path></g><g transform="translate(0, 600)"><path d="M0 -486.7C52.9 -459.5 105.9 -432.2 171.8 -414.8C237.7 -397.5 316.7 -390 344.2 -344.2C371.7 -298.4 347.9 -214.2 363.1 -150.4C378.3 -86.6 432.5 -43.3 486.7 0L0 0Z" fill="#FBAE3C"></path></g></svg>