<svg id="visual" viewBox="0 0 900 600" width="900" height="600" xmlns="http://www.w3.org/2000/svg" xmlns:xlink="http://www.w3.org/1999/xlink" version="1.1"><path d="M0 115L100 133L200 133L300 157L400 133L500 139L600 163L700 175L800 109L900 133L900 0L800 0L700 0L600 0L500 0L400 0L300 0L200 0L100 0L0 0Z" fill="#3f37c9"></path><path d="M0 193L100 211L200 223L300 229L400 217L500 223L600 241L700 247L800 193L900 211L900 131L800 107L700 173L600 161L500 137L400 131L300 155L200 131L100 131L0 113Z" fill="#403fcf"></path><path d="M0 241L100 277L200 265L300 265L400 283L500 277L600 295L700 295L800 229L900 253L900 209L800 191L700 245L600 239L500 221L400 215L300 227L200 221L100 209L0 191Z" fill="#4046d6"></path><path d="M0 283L100 319L200 295L300 301L400 319L500 325L600 337L700 349L800 265L900 283L900 251L800 227L700 293L600 293L500 275L400 281L300 263L200 263L100 275L0 239Z" fill="#414ddc"></path><path d="M0 337L100 367L200 373L300 361L400 361L500 397L600 403L700 421L800 337L900 343L900 281L800 263L700 347L600 335L500 323L400 317L300 299L200 293L100 317L0 281Z" fill="#4254e2"></path><path d="M0 421L100 439L200 475L300 481L400 469L500 493L600 499L700 487L800 427L900 427L900 341L800 335L700 419L600 401L500 395L400 359L300 359L200 371L100 365L0 335Z" fill="#425ae8"></path><path d="M0 601L100 601L200 601L300 601L400 601L500 601L600 601L700 601L800 601L900 601L900 425L800 425L700 485L600 497L500 491L400 467L300 479L200 473L100 437L0 419Z" fill="#4361ee"></path></svg>