<?xml version="1.0" standalone="no"?><svg xmlns="http://www.w3.org/2000/svg" viewBox="0 0 1440 320"><path fill="#3a0ca3" fill-opacity="1" d="M0,160L40,186.7C80,213,160,267,240,272C320,277,400,235,480,181.3C560,128,640,64,720,42.7C800,21,880,43,960,80C1040,117,1120,171,1200,176C1280,181,1360,139,1400,117.3L1440,96L1440,320L1400,320C1360,320,1280,320,1200,320C1120,320,1040,320,960,320C880,320,800,320,720,320C640,320,560,320,480,320C400,320,320,320,240,320C160,320,80,320,40,320L0,320Z"></path></svg>